<?xml version="1.0" encoding="UTF-8"?>
<!-- GSBG 2027 brand mark — primary (full colour) -->
<svg xmlns="http://www.w3.org/2000/svg" viewBox="0 0 80 80" width="1024" height="1024">
  <defs>
    <linearGradient id="tileGrad" x1="0" y1="0" x2="0" y2="1">
      <stop offset="0" stop-color="#052e1c" stop-opacity="0.85"/>
      <stop offset="1" stop-color="#052e1c"/>
    </linearGradient>
  </defs>
  <rect x="3" y="3" width="74" height="74" rx="20" fill="url(#tileGrad)"/>
  <rect x="7" y="7" width="66" height="66" rx="16" fill="none" stroke="rgba(255,255,255,0.07)" stroke-width="0.6"/>
  <path d="M 77 3 L 77 31 L 49 3 Z" fill="#059669"/>
  <g transform="scale(2.5)">
    <g fill="none" stroke="#ffffff" stroke-width="2.2" stroke-linecap="round">
    <path d="M 10 8 C 24 12, 8 16, 22 20 C 8 24, 24 28, 10 32"/>
    <path d="M 22 8 C 8 12, 24 16, 10 20 C 24 24, 8 28, 22 32"/>
  </g>
  <circle cx="10" cy="8" r="1.6" fill="#059669"/>
  <circle cx="22" cy="8" r="1.6" fill="#059669"/>
  <circle cx="10" cy="32" r="1.6" fill="#059669"/>
  <circle cx="22" cy="32" r="1.6" fill="#059669"/>
  </g>
  <g transform="translate(44 57)">
    <rect x="0" y="0" width="28" height="16" rx="4.5" fill="rgba(0,0,0,0.42)"/>
    <rect x="0" y="0" width="28" height="16" rx="4.5" fill="none" stroke="rgba(255,255,255,0.18)" stroke-width="0.5"/>
    <text x="14" y="12" text-anchor="middle" font-family="'JetBrains Mono', 'Courier New', monospace" font-size="7.5" font-weight="700" fill="#ffffff" letter-spacing="0.5">GSBG</text>
  </g>
</svg>
