<svg viewBox="0 0 80 80" xmlns="http://www.w3.org/2000/svg" aria-label="GCSA 2027 logo">
  <defs>
    <linearGradient id="tileH" x1="0" y1="0" x2="1" y2="1">
      <stop offset="0%" stop-color="#1e40af"/>
      <stop offset="55%" stop-color="#1e3a8a"/>
      <stop offset="100%" stop-color="#1e3a8a"/>
    </linearGradient>
    <linearGradient id="accH" x1="0" y1="0" x2="1" y2="1">
      <stop offset="0%" stop-color="#2563eb" stop-opacity="0.9"/>
      <stop offset="100%" stop-color="#2563eb"/>
    </linearGradient>
    <radialGradient id="glowH" cx="0.5" cy="0.5" r="0.6">
      <stop offset="0%" stop-color="#2563eb" stop-opacity="0.3"/>
      <stop offset="100%" stop-color="#2563eb" stop-opacity="0"/>
    </radialGradient>
    <linearGradient id="hiH" x1="0" y1="0" x2="0" y2="1">
      <stop offset="0%" stop-color="#ffffff" stop-opacity="0.16"/>
      <stop offset="45%" stop-color="#ffffff" stop-opacity="0"/>
    </linearGradient>
  </defs>
  <rect x="3" y="3" width="74" height="74" rx="20" fill="url(#tileH)"/>
  <rect x="3" y="3" width="74" height="74" rx="20" fill="url(#hiH)"/>
  <rect x="7" y="7" width="66" height="66" rx="16" fill="none" stroke="rgba(255,255,255,0.08)" stroke-width="0.8"/>
  <path d="M 77 3 L 77 31 L 49 3 Z" fill="url(#accH)"/>
  <path d="M 77 3 L 77 31 L 49 3 Z" fill="none" stroke="rgba(255,255,255,0.16)" stroke-width="0.6"/>
  <ellipse cx="40" cy="40" rx="24" ry="24" fill="url(#glowH)"/>
  <rect x="34" y="14" width="12" height="52" rx="3" fill="#ffffff"/>
  <rect x="14" y="34" width="52" height="12" rx="3" fill="#ffffff"/>
  <rect x="36" y="16" width="3" height="16" rx="1.2" fill="rgba(255,255,255,0.55)"/>
  <circle cx="40" cy="40" r="4" fill="#2563eb"/>
  <circle cx="40" cy="40" r="6" fill="none" stroke="rgba(255,255,255,0.35)" stroke-width="0.8"/>
  <circle cx="11" cy="11" r="1.2" fill="rgba(255,255,255,0.28)"/>
  <circle cx="11" cy="69" r="1.2" fill="rgba(255,255,255,0.18)"/>
  <g transform="translate(44 57)">
    <rect x="0" y="0" width="28" height="16" rx="4.5" fill="rgba(0,0,0,0.42)" stroke="rgba(255,255,255,0.22)" stroke-width="0.6"/>
    <text x="14" y="12" text-anchor="middle" font-family="'JetBrains Mono', monospace" font-size="7.5" font-weight="700" fill="#ffffff" letter-spacing="0.5">GCSA</text>
  </g>
</svg>
